<svg id="Capa_1" data-name="Capa 1" xmlns="http://www.w3.org/2000/svg" viewBox="0 0 502 115.14"><defs><style>.cls-1{fill:#fff;}</style></defs><rect class="cls-1" x="308.77" y="32.38" width="1.24" height="52.69"/><path class="cls-1" d="M337.35,31.28l-.23.94-1.77.13c-.81.06-1.1.51-1.35,1.61L331.45,44.9c-1.41,6.06.84,8,4.41,8,4.48,0,6.06-3.45,7.06-7.73L345.52,34c.26-1.07,0-1.52-.7-1.58l-1.9-.16.22-.94H352l-.22.94-1.78.16c-.8.06-1.09.48-1.35,1.58l-2.73,11.65c-1.77,7.5-5.8,8.44-10.18,8.44-5.53,0-9-2.32-7.5-8.73L330.91,34c.25-1.07,0-1.52-.71-1.58l-1.9-.16.22-.94Z"/><path class="cls-1" d="M349.78,54l3.37-13.17c.29-1,.29-1.48-.48-1.54l-2-.16.19-.78,5.89-.9.16.16-2.09,7h.1c1.93-3.76,5.27-7.18,8.37-7.18,2.64,0,3,2.13,2.28,4.67l-2.51,8.44c-.29,1-.32,1.77.32,1.77.9,0,2.32-2.29,2.9-3.42l.77.45C366,51.76,364.17,54,361.75,54c-1.74,0-2.16-1.35-1.64-3.15l2.77-9.44c.35-1.25.06-2.28-1.07-2.28-2.6,0-5.69,4.7-6.88,7.47a56,56,0,0,0-2.32,7Z"/><path class="cls-1" d="M378.2,32.31a2,2,0,0,1-2.06,2.16,1.68,1.68,0,0,1-1.77-1.8,2.06,2.06,0,0,1,2.09-2.13,1.63,1.63,0,0,1,1.74,1.77m-1.57,5.09.16.16-3.51,12.95c-.29,1-.32,1.77.32,1.77.9,0,2.32-2.29,2.9-3.42l.77.45c-1.1,2.45-2.9,4.64-5.22,4.64-1.74,0-2.15-1.32-1.67-3.15l2.7-10.08c.29-1.13.2-1.42-.67-1.48l-1.84-.16.2-.78Z"/><path class="cls-1" d="M386.44,37.4l.17.16L383.81,50c-.36,1.55.22,2.26,1,2.26,2.63.09,6.79-5.77,7.05-10.18a14.57,14.57,0,0,0-.39-4,4.74,4.74,0,0,1,2.35-.68,3.31,3.31,0,0,1,1,2.51c0,2-1.58,5.51-3.77,8.47s-5,5.57-7.79,5.57c-1.83,0-2.87-1.29-2.22-4.22l2-8.95c.23-1.06.26-1.48-.48-1.54l-2-.16.19-.78Z"/><path class="cls-1" d="M406.22,40.43a1.78,1.78,0,0,0-1.87-1.9c-2.58,0-5,3.86-5.54,7.76,5.44-1.16,7.41-3.61,7.41-5.86m1.48,8.92c-2.19,3.57-5,4.6-7.37,4.6-1.87,0-4.8-.77-4.8-5.28a12.25,12.25,0,0,1,2.67-7.6,9,9,0,0,1,7.05-3.67c2.64,0,4,1.51,4,3.22a4.11,4.11,0,0,1-1.35,3.09c-1.38,1.29-3.73,2.58-9.14,3.67a3.46,3.46,0,0,0,0,.52c0,2.54.67,4.47,2.92,4.47,2.42,0,4.16-2.15,5.32-3.67Z"/><path class="cls-1" d="M410.89,54l3-13.17c.22-1,.29-1.48-.48-1.54l-2-.16.19-.78,5.54-.9.16.16-1.45,5.35h.07c1.74-3.48,4-5.51,5.76-5.51,1,0,1.48.55,1.45,1.42s-.71,2-1.52,2c-1,0-1.25-.81-2.25-.81-1.22,0-2.83,2.77-4,7-.52,1.86-1.13,4.47-1.67,6.56Z"/><path class="cls-1" d="M434.39,39.91a1.52,1.52,0,0,1-1.55,1.48.9.9,0,0,1-.9-.64c-.68-1.51-1.51-2.22-2.57-2.22a2.06,2.06,0,0,0-2,2.09c0,.9.36,2,2.29,3.54,2.15,1.77,3,3.16,3,4.93,0,2.64-2.09,4.86-5.57,4.86-3.06,0-4.83-1.67-4.83-3.06a1.74,1.74,0,0,1,1.67-1.74c.55,0,.84.36,1,1,.52,1.7,1.71,2.7,2.9,2.7a2.22,2.22,0,0,0,2.32-2.41,5.22,5.22,0,0,0-2.22-3.77c-1.68-1.35-2.84-2.83-2.84-4.51,0-2.6,1.94-4.73,5.22-4.73,2.86,0,4.09,1.51,4.09,2.51"/><path class="cls-1" d="M444.69,32.31a2,2,0,0,1-2.06,2.16,1.68,1.68,0,0,1-1.77-1.8A2.06,2.06,0,0,1,443,30.54a1.63,1.63,0,0,1,1.74,1.77m-1.58,5.09.17.16-3.52,12.95c-.29,1-.32,1.77.33,1.77.9,0,2.32-2.29,2.89-3.42l.78.45c-1.1,2.45-2.9,4.64-5.22,4.64-1.74,0-2.16-1.32-1.67-3.15l2.7-10.08c.29-1.13.19-1.42-.67-1.48l-1.84-.16.19-.78Z"/><path class="cls-1" d="M450.32,52.28c1.71,0,3.84-2.42,5.38-4.93a25.52,25.52,0,0,0,3.19-8.18,3.53,3.53,0,0,0-2.22-.64c-5.15,0-7.95,7.95-7.95,11.43,0,1.45.57,2.32,1.6,2.32m13.56-22.6.16.16L459,50.51c-.25,1-.32,1.77.32,1.77.91,0,2.32-2.29,2.9-3.42l.78.45c-1.1,2.45-2.9,4.64-5.25,4.64-1.64,0-2.13-1.29-1.48-3.57l1.06-3.83h-.06c-1.9,3.44-4.77,7.4-8.47,7.4-2.61,0-3.22-2.16-3.22-4.25,0-3.89,3.44-12.3,10.94-12.3a6.2,6.2,0,0,1,2.71.55l.06-.07,1.22-5.18c.26-1,.2-1.25-.57-1.32L458,31.19l.2-.74Z"/><path class="cls-1" d="M475.63,38.53c-5.05,0-8.21,7.95-8.21,11.49,0,1.26.35,2.26,1.42,2.26,1.54,0,3.51-2.16,5.31-4.9a27,27,0,0,0,3.44-8.14,2.87,2.87,0,0,0-2-.71m5.15-.87-3.41,12.85c-.29,1-.32,1.77.32,1.77.9,0,2.32-2.29,2.9-3.42l.77.45C480.27,51.76,478.46,54,476,54c-1.74,0-2.1-1.32-1.42-3.61l1.09-3.67h-.06C473.76,50,470.77,54,467.32,54c-2.19,0-3.09-1.9-3.09-3.83,0-4.25,3.67-12.72,11.33-12.72a4.32,4.32,0,0,1,2.35.68l.17-.42Z"/><path class="cls-1" d="M487.28,52.28c1.71,0,3.83-2.42,5.38-4.93a25.52,25.52,0,0,0,3.19-8.18,3.55,3.55,0,0,0-2.22-.64c-5.15,0-8,7.95-8,11.43,0,1.45.58,2.32,1.61,2.32m13.56-22.6.16.16-5.09,20.67c-.25,1-.32,1.77.32,1.77.91,0,2.32-2.29,2.9-3.42l.77.45C498.81,51.76,497,54,494.66,54c-1.65,0-2.13-1.29-1.48-3.57l1.06-3.83h-.07c-1.9,3.44-4.76,7.4-8.46,7.4-2.61,0-3.22-2.16-3.22-4.25,0-3.89,3.44-12.3,10.94-12.3a6.2,6.2,0,0,1,2.71.55l.06-.07,1.23-5.18c.25-1,.19-1.25-.58-1.32l-1.94-.19.2-.74Z"/><path class="cls-1" d="M342.11,67.58c.38-3.31-.81-5-3.9-5-2.8,0-4.47,1.8-4.47,4.09,0,2.45,2.28,3.54,4.15,4.51,3.25,1.67,4.83,3.51,4.83,6.4,0,3.45-1.9,7.06-8.15,7.12-2.35,0-5.47-1-6.72-2.64l.83-4.93h.93c-.19,4.29,2.39,6.44,5.35,6.44a4.61,4.61,0,0,0,4.86-4.67c0-2.57-1.54-3.92-4.12-5.21S331,70.84,331,67.81c0-2.71,1.77-6.38,7.41-6.38a10,10,0,0,1,5.76,1.65L343,67.58Z"/><path class="cls-1" d="M356.31,69.16c-5.06,0-8.21,8-8.21,11.5,0,1.25.35,2.25,1.41,2.25,1.55,0,3.51-2.16,5.31-4.89a27.23,27.23,0,0,0,3.45-8.15,2.87,2.87,0,0,0-2-.71m5.15-.87L358,81.14c-.28,1-.32,1.77.33,1.77.9,0,2.31-2.29,2.89-3.41L362,80c-1.1,2.44-2.9,4.63-5.35,4.63-1.74,0-2.09-1.32-1.42-3.6l1.1-3.67h-.06c-1.87,3.28-4.86,7.27-8.31,7.27-2.19,0-3.09-1.9-3.09-3.83,0-4.25,3.67-12.71,11.33-12.71a4.37,4.37,0,0,1,2.35.67l.16-.42Z"/><path class="cls-1" d="M364,84.58l3.38-13.17c.29-1,.29-1.48-.48-1.54l-2-.16.19-.78L371,68l.16.16-2.09,7h.09c1.93-3.76,5.28-7.17,8.37-7.17,2.64,0,3,2.12,2.29,4.66l-2.51,8.44c-.29,1-.33,1.77.32,1.77.9,0,2.32-2.29,2.9-3.41l.77.45c-1.1,2.45-2.9,4.63-5.31,4.63-1.74,0-2.16-1.35-1.65-3.15L377.1,72c.36-1.25.07-2.28-1.06-2.28-2.61,0-5.7,4.7-6.89,7.47a57.32,57.32,0,0,0-2.32,7Z"/><path class="cls-1" d="M397.67,72.7c-.22,1-.28,1.35,1.94,1.35,4.34,0,6.92-2.18,6.92-6.79,0-2.73-1.64-4.22-4.83-4.22-1.64,0-1.87.29-2.06,1.13Zm-8.4,11.5.2-.94,1.77-.19c.77-.07,1.09-.45,1.35-1.55l3.86-16.93c.26-1.06,0-1.51-.7-1.58l-1.9-.16.22-.93h7.53a11.7,11.7,0,0,1,5.7,1.16,5.26,5.26,0,0,1,2.61,4.76,6.72,6.72,0,0,1-3.25,5.83,14.07,14.07,0,0,1-7.15,1.51h-2.38l-1.45,6.34c-.22,1-.06,1.48.71,1.55l2.22.19-.19.94Z"/><path class="cls-1" d="M420.5,69.16c-5.05,0-8.2,8-8.2,11.5,0,1.25.35,2.25,1.41,2.25,1.55,0,3.51-2.16,5.31-4.89a27.23,27.23,0,0,0,3.45-8.15,2.88,2.88,0,0,0-2-.71m5.16-.87-3.42,12.85c-.29,1-.32,1.77.33,1.77.9,0,2.31-2.29,2.9-3.41l.77.45c-1.1,2.44-2.9,4.63-5.35,4.63-1.74,0-2.09-1.32-1.42-3.6l1.1-3.67h-.07c-1.86,3.28-4.86,7.27-8.3,7.27-2.19,0-3.09-1.9-3.09-3.83,0-4.25,3.67-12.71,11.33-12.71a4.37,4.37,0,0,1,2.35.67l.17-.42Z"/><path class="cls-1" d="M439.21,69.71c-2,0-4.41,2.77-5.86,5.34a13,13,0,0,0-1.7,5.64,2.55,2.55,0,0,0,2.64,2.77c4.73,0,6.66-8.76,6.66-11.08,0-1.83-.55-2.67-1.74-2.67m-6.73,5h.07C435,70.26,438.21,68,440.66,68s3.45,1.67,3.45,4A15.86,15.86,0,0,1,442,79.24c-1.58,2.83-4.32,5.34-8.08,5.34a4.33,4.33,0,0,1-4.06-2.25l-1,1.87h-1.16l4.74-20.58c.29-1.25.16-1.48-.65-1.57l-1.83-.23.19-.74,5.77-.77.16.16Z"/><path class="cls-1" d="M454.67,60.31l.16.16-5.19,20.7c-.26,1.06-.26,1.74.32,1.74.77,0,2.23-2,3-3.41l.77.45c-1,2.41-3,4.63-5.25,4.63-1.74,0-2.12-1.32-1.67-3.15l4.41-17.81c.32-1.25.16-1.48-.65-1.57l-1.83-.23.19-.74Z"/><path class="cls-1" d="M458.72,80c0,2.29,1,3.42,2.9,3.42,4.41,0,6.08-8.63,6.08-10.92,0-2-.7-3.38-2.67-3.38-4.25,0-6.31,7.41-6.31,10.88m12.11-6.37a13.47,13.47,0,0,1-2,6.79,8.19,8.19,0,0,1-7.28,4.12c-4.06,0-5.92-2.38-5.92-5.82C455.6,76,457.43,68,465.06,68c2.61,0,5.77,1.19,5.77,5.63"/><path class="cls-1" d="M181,45.86h-2.31c-1.45-9-6.89-12.24-14.69-12.24-14.24-.07-19.22,12.55-19.22,25.11,0,9.26,3.3,24.8,19.07,24.8,10,0,13.93-5.82,16.07-13.77h2.3l-1.08,12.78c-3.68,2-10.7,3.68-16.84,3.68-8.57,0-16.07-1.77-20.82-6.51-4.59-4.6-7.27-11.79-7.27-20.75,0-8.65,2.61-15.24,7-20.13C147.8,33.7,155.37,31,164.8,31c7,0,12.78,1.37,16.23,3Z"/><path class="cls-1" d="M227.81,32.09V44.64H225.5c-1.06-8-2.83-9.88-11.56-9.88h-7.5c-2.46,0-2.83.31-2.83,2.76V56.05h10.72c6.51,0,6.81-1.83,7.5-6.59h2.3V65.62h-2.3c-.69-4.83-1-6.66-7.5-6.66H203.61V75.89c0,3.75.3,5,1.91,5.73s4.37.77,8,.77c9.65,0,13.1-1.24,14.86-10.56h2.3l-.93,13.23H189.14V82.85c6.73-.46,6.9-.62,6.9-4.9V39.21c0-4.29-.17-4.45-6.9-4.9V32.09Z"/><path class="cls-1" d="M291.19,32.09v2.22c-6.66.45-6.89.61-6.89,4.9V65.53c0,4.61-.76,8.67-2.06,11.34-3.53,7.58-11.57,9.35-19.14,9.35S247.55,84.38,244,76.87c-1.3-2.6-2-6.64-2.07-11.18V39.21c0-4.29-.16-4.45-6.88-4.9V32.09h21.36v2.22c-6.67.45-6.9.61-6.9,4.9V64c0,7.27,1.16,11.88,3.45,14.93s5.74,4.59,10.11,4.59,7.81-1.53,10.18-4.59,3.45-7.66,3.45-14.93V39.21c0-4.29-.16-4.45-6.9-4.9V32.09Z"/><path class="cls-1" d="M57.57,1a56.57,56.57,0,1,0,56.57,56.57A56.64,56.64,0,0,0,57.57,1ZM69.26,109.24v-40H45.88v40a53.16,53.16,0,0,1-40-40h40V45.89H5.9a53.16,53.16,0,0,1,40-40v40H69.26V5.9a53.13,53.13,0,0,1,40,40h-40V69.26h40A53.11,53.11,0,0,1,69.26,109.24Z"/></svg>