<svg id="logo_CEU" xmlns="http://www.w3.org/2000/svg" width="239.317" height="50.264" viewBox="0 0 239.317 50.264">
  <path id="Trazado_1" data-name="Trazado 1" d="M224.523,271.426a25.133,25.133,0,1,1-25.131-25.13,25.133,25.133,0,0,1,25.131,25.13" transform="translate(-174.257 -246.295)" fill="#c1c300"/>
  <path id="Trazado_2" data-name="Trazado 2" d="M174.257,292.312a25.391,25.391,0,0,0,.574,5.364h49.119a25.32,25.32,0,0,0,0-10.72H174.831a25.29,25.29,0,0,0-.574,5.356" transform="translate(-174.257 -267.182)" fill="#db000c"/>
  <path id="Trazado_3" data-name="Trazado 3" d="M214.909,295.981a25.186,25.186,0,0,0,10.723,0V246.863a25.565,25.565,0,0,0-10.723,0Z" transform="translate(-195.139 -246.294)" fill="#00a0e5"/>
  <rect id="Rect치ngulo_8" data-name="Rect치ngulo 8" width="10.723" height="10.72" transform="translate(19.769 19.774)" fill="#83225c"/>
  <path id="Trazado_4" data-name="Trazado 4" d="M323.3,282.206h-.974c-.619-3.842-2.93-5.206-6.25-5.206-6.053-.027-8.167,5.34-8.167,10.679,0,3.935,1.4,10.537,8.106,10.537,4.256,0,5.923-2.479,6.835-5.845h.975l-.454,5.422a17.174,17.174,0,0,1-7.163,1.562c-3.645,0-6.834-.745-8.85-2.759-1.954-1.954-3.093-5.01-3.093-8.819a12.353,12.353,0,0,1,2.96-8.557c1.955-2.179,5.178-3.357,9.18-3.357a17.179,17.179,0,0,1,6.895,1.263Z" transform="translate(-241.039 -261.483)" fill="#474841"/>
  <path id="Trazado_5" data-name="Trazado 5" d="M366.937,276.858v5.348h-.976c-.458-3.4-1.2-4.21-4.916-4.21h-3.19c-1.04,0-1.2.136-1.2,1.176v7.877h4.555c2.77,0,2.9-.782,3.186-2.8h.98v6.866h-.98c-.291-2.051-.416-2.827-3.186-2.827h-4.555v7.191c0,1.6.133,2.148.814,2.438a11.116,11.116,0,0,0,3.385.321c4.1,0,5.566-.52,6.313-4.486h.977l-.391,5.628H350.5v-.947c2.866-.2,2.932-.258,2.932-2.081V279.878c0-1.81-.065-1.882-2.932-2.07v-.95Z" transform="translate(-264.791 -261.994)" fill="#474841"/>
  <path id="Trazado_6" data-name="Trazado 6" d="M414.509,276.858v.95c-2.828.188-2.929.261-2.929,2.07v11.207a11.623,11.623,0,0,1-.873,4.816c-1.5,3.221-4.917,3.966-8.139,3.966-3.193,0-6.609-.781-8.109-3.966a11.914,11.914,0,0,1-.875-4.759V279.878c0-1.81-.066-1.882-2.926-2.07v-.95h9.08v.95c-2.833.188-2.933.261-2.933,2.07v10.553c0,3.1.494,5.048,1.464,6.351a5.75,5.75,0,0,0,8.623,0c.981-1.3,1.467-3.255,1.467-6.351V279.878c0-1.81-.066-1.882-2.926-2.07v-.95Z" transform="translate(-285.42 -261.994)" fill="#474841"/>
  <g id="Grupo_1" data-name="Grupo 1" transform="translate(140.44 13.316)">
    <rect id="Rect치ngulo_9" data-name="Rect치ngulo 9" width="0.527" height="29.286" transform="translate(0 0)" fill="#474841"/>
  </g>
  <path id="Trazado_7" data-name="Trazado 7" d="M497.836,273.487l-.11.455-.861.062c-.393.032-.533.25-.658.783l-1.238,5.323c-.688,2.944.408,3.9,2.146,3.9,2.177,0,2.944-1.675,3.429-3.758l1.268-5.464c.125-.517.016-.737-.344-.767l-.924-.078.109-.455h4.289l-.108.455-.862.078c-.392.031-.532.234-.657.767l-1.331,5.668c-.861,3.648-2.818,4.1-4.948,4.1-2.692,0-4.383-1.128-3.649-4.244l1.316-5.526c.124-.517.016-.737-.346-.767l-.923-.078.11-.455Z" transform="translate(-338.102 -260.263)" fill="#474841"/>
  <path id="Trazado_8" data-name="Trazado 8" d="M515.145,287.651l1.642-6.4c.141-.5.141-.721-.234-.751l-.97-.079.093-.376,2.866-.438.076.078L517.6,283.1h.047c.94-1.831,2.567-3.491,4.07-3.491,1.285,0,1.472,1.032,1.111,2.271l-1.222,4.1c-.14.5-.157.861.158.861.437,0,1.127-1.111,1.409-1.659l.376.219c-.533,1.19-1.408,2.255-2.583,2.255-.846,0-1.049-.658-.8-1.534l1.346-4.587c.174-.611.032-1.112-.516-1.112-1.267,0-2.77,2.285-3.35,3.633a27.64,27.64,0,0,0-1.127,3.413Z" transform="translate(-349.367 -263.405)" fill="#474841"/>
  <path id="Trazado_9" data-name="Trazado 9" d="M539.457,273.606a.968.968,0,0,1-1,1.05.816.816,0,0,1-.86-.876,1,1,0,0,1,1.018-1.035.793.793,0,0,1,.846.861m-.767,2.474.079.078-1.708,6.294c-.14.5-.155.861.157.861.439,0,1.126-1.111,1.409-1.659l.375.219c-.532,1.19-1.408,2.255-2.536,2.255-.846,0-1.049-.642-.814-1.534l1.314-4.9c.141-.548.094-.69-.329-.72l-.893-.079.095-.376Z" transform="translate(-359.855 -259.882)" fill="#474841"/>
  <path id="Trazado_10" data-name="Trazado 10" d="M548.785,279.6l.079.078-1.362,6.059c-.173.751.109,1.1.5,1.1,1.283.047,3.3-2.8,3.429-4.947a7.075,7.075,0,0,0-.188-1.957,2.3,2.3,0,0,1,1.142-.328,1.605,1.605,0,0,1,.487,1.221,8.776,8.776,0,0,1-1.833,4.118c-1.08,1.457-2.442,2.709-3.788,2.709-.892,0-1.395-.626-1.081-2.051l.956-4.352c.108-.517.125-.722-.236-.752l-.971-.079.093-.376Z" transform="translate(-365.176 -263.405)" fill="#474841"/>
  <path id="Trazado_11" data-name="Trazado 11" d="M566.093,281.075a.867.867,0,0,0-.908-.923c-1.252,0-2.427,1.879-2.693,3.773,2.646-.563,3.6-1.752,3.6-2.849m.72,4.338a4.136,4.136,0,0,1-3.585,2.238c-.908,0-2.334-.376-2.334-2.568a5.967,5.967,0,0,1,1.3-3.7,4.384,4.384,0,0,1,3.43-1.784c1.283,0,1.941.736,1.941,1.566a2.009,2.009,0,0,1-.658,1.5c-.674.626-1.817,1.251-4.446,1.784a1.483,1.483,0,0,0-.016.25c0,1.237.329,2.176,1.424,2.176,1.174,0,2.02-1.049,2.584-1.784Z" transform="translate(-372.868 -263.405)" fill="#474841"/>
  <path id="Trazado_12" data-name="Trazado 12" d="M576.252,287.651l1.441-6.4c.108-.5.14-.721-.236-.751l-.972-.079.1-.376,2.691-.438.08.078-.705,2.6h.031c.846-1.69,1.925-2.677,2.8-2.677.5,0,.719.265.7.689,0,.454-.343.971-.736.971-.5,0-.609-.391-1.094-.391-.6,0-1.377,1.345-1.941,3.4-.251.907-.549,2.176-.815,3.194Z" transform="translate(-380.757 -263.405)" fill="#474841"/>
  <path id="Trazado_13" data-name="Trazado 13" d="M593.5,280.825a.741.741,0,0,1-.75.721.443.443,0,0,1-.439-.313c-.33-.736-.736-1.081-1.253-1.081a1,1,0,0,0-.971,1.019c0,.438.173.954,1.112,1.721a3.016,3.016,0,0,1,1.44,2.4,2.451,2.451,0,0,1-2.709,2.364c-1.489,0-2.348-.815-2.348-1.487a.845.845,0,0,1,.814-.846c.266,0,.407.173.5.469a1.626,1.626,0,0,0,1.408,1.315,1.081,1.081,0,0,0,1.128-1.174,2.528,2.528,0,0,0-1.08-1.832,3.016,3.016,0,0,1-1.378-2.193,2.314,2.314,0,0,1,2.536-2.3c1.394,0,1.989.736,1.989,1.221" transform="translate(-386.579 -263.405)" fill="#474841"/>
  <path id="Trazado_14" data-name="Trazado 14" d="M605.941,273.606a.967.967,0,0,1-1,1.05.817.817,0,0,1-.862-.876,1,1,0,0,1,1.017-1.035.793.793,0,0,1,.846.861m-.768,2.474.08.078-1.708,6.294c-.141.5-.156.861.156.861.439,0,1.128-1.111,1.409-1.659l.377.219c-.533,1.19-1.41,2.255-2.537,2.255-.846,0-1.05-.642-.814-1.534l1.314-4.9c.14-.548.094-.69-.329-.72l-.892-.079.092-.376Z" transform="translate(-394.007 -259.882)" fill="#474841"/>
  <path id="Trazado_15" data-name="Trazado 15" d="M613.225,282.868c.831,0,1.864-1.173,2.616-2.395a12.446,12.446,0,0,0,1.55-3.978,1.713,1.713,0,0,0-1.081-.313c-2.5,0-3.866,3.867-3.866,5.558,0,.7.281,1.127.781,1.127m6.593-10.99.078.078-2.473,10.052c-.125.5-.157.861.156.861.439,0,1.128-1.111,1.41-1.659l.376.219c-.532,1.19-1.409,2.255-2.554,2.255-.8.016-1.033-.626-.719-1.739l.516-1.862h-.031c-.924,1.675-2.318,3.6-4.118,3.6-1.27,0-1.565-1.049-1.565-2.067,0-1.894,1.674-5.981,5.322-5.981a2.984,2.984,0,0,1,1.315.266l.032-.031.594-2.522c.126-.5.1-.61-.281-.641l-.94-.094.094-.36Z" transform="translate(-398.552 -259.436)" fill="#474841"/>
  <path id="Trazado_16" data-name="Trazado 16" d="M635.14,280.152c-2.458,0-3.992,3.867-3.992,5.59,0,.61.172,1.1.688,1.1.752,0,1.706-1.049,2.583-2.38A13.232,13.232,0,0,0,636.1,280.5a1.4,1.4,0,0,0-.956-.345m2.505-.423-1.66,6.247c-.142.5-.157.861.157.861.438,0,1.127-1.111,1.41-1.659l.375.219c-.532,1.19-1.409,2.255-2.6,2.255-.845,0-1.017-.642-.689-1.754l.533-1.785h-.032c-.908,1.6-2.364,3.539-4.039,3.539-1.065,0-1.5-.924-1.5-1.864,0-2.067,1.785-6.184,5.51-6.184a2.135,2.135,0,0,1,1.142.329l.08-.2Z" transform="translate(-408.16 -263.405)" fill="#474841"/>
  <path id="Trazado_17" data-name="Trazado 17" d="M650.183,282.868c.83,0,1.863-1.173,2.614-2.395a12.42,12.42,0,0,0,1.55-3.978,1.708,1.708,0,0,0-1.079-.313c-2.506,0-3.868,3.867-3.868,5.558,0,.7.282,1.127.783,1.127m6.592-10.99.078.078-2.474,10.052c-.124.5-.156.861.157.861.438,0,1.126-1.111,1.409-1.659l.375.219c-.532,1.19-1.409,2.255-2.551,2.255-.8.016-1.034-.626-.721-1.739l.517-1.862h-.031c-.924,1.675-2.317,3.6-4.118,3.6-1.268,0-1.565-1.049-1.565-2.067,0-1.894,1.675-5.981,5.323-5.981a2.994,2.994,0,0,1,1.315.266l.032-.031.595-2.522c.126-.5.093-.61-.282-.641l-.94-.094.094-.36Z" transform="translate(-417.536 -259.436)" fill="#474841"/>
  <path id="Trazado_18" data-name="Trazado 18" d="M497.03,310.579c.188-1.612-.391-2.443-1.894-2.443a1.987,1.987,0,0,0-2.176,1.99c0,1.189,1.112,1.721,2.02,2.192,1.581.813,2.348,1.705,2.348,3.115,0,1.675-.924,3.429-3.962,3.461a4.494,4.494,0,0,1-3.27-1.284l.407-2.395h.453c-.093,2.082,1.159,3.13,2.6,3.13a2.243,2.243,0,0,0,2.363-2.27c0-1.251-.751-1.909-2-2.536-1.267-.61-2.27-1.378-2.27-2.849,0-1.315.861-3.1,3.6-3.1a4.886,4.886,0,0,1,2.8.8l-.563,2.192Z" transform="translate(-336.5 -277.78)" fill="#474841"/>
  <path id="Trazado_19" data-name="Trazado 19" d="M512.7,314.737c-2.457,0-3.993,3.867-3.993,5.59,0,.61.172,1.1.689,1.1.753,0,1.706-1.05,2.583-2.38a13.216,13.216,0,0,0,1.676-3.961,1.4,1.4,0,0,0-.955-.344m2.505-.423-1.66,6.248c-.14.5-.156.861.157.861.439,0,1.128-1.113,1.41-1.661l.376.22c-.533,1.19-1.409,2.255-2.6,2.255-.847,0-1.017-.642-.69-1.754l.534-1.784H512.7c-.908,1.6-2.364,3.538-4.039,3.538-1.065,0-1.5-.923-1.5-1.864,0-2.066,1.785-6.183,5.512-6.183a2.143,2.143,0,0,1,1.142.328l.079-.2Z" transform="translate(-345.263 -281.171)" fill="#474841"/>
  <path id="Trazado_20" data-name="Trazado 20" d="M526.249,322.237l1.644-6.4c.141-.5.141-.72-.235-.751l-.971-.077.094-.377,2.865-.437.078.078-1.016,3.412h.046c.94-1.831,2.568-3.491,4.07-3.491,1.284,0,1.472,1.031,1.111,2.269l-1.221,4.1c-.14.5-.157.86.156.86.439,0,1.128-1.111,1.41-1.659l.375.219c-.532,1.191-1.41,2.255-2.582,2.255-.847,0-1.049-.657-.8-1.534l1.346-4.589c.173-.61.032-1.11-.516-1.11-1.268,0-2.771,2.286-3.35,3.631a28.139,28.139,0,0,0-1.128,3.413Z" transform="translate(-355.071 -281.171)" fill="#474841"/>
  <path id="Trazado_21" data-name="Trazado 21" d="M555.6,313.315c-.109.5-.14.658.94.658,2.114,0,3.366-1.064,3.366-3.3,0-1.331-.8-2.052-2.347-2.052-.8,0-.908.142-1,.549Zm-4.086,5.591.094-.454.862-.094c.375-.033.532-.22.657-.752l1.878-8.236c.126-.515.016-.735-.343-.766l-.923-.078.109-.454h3.662a5.717,5.717,0,0,1,2.772.564,2.566,2.566,0,0,1,1.268,2.316,3.269,3.269,0,0,1-1.582,2.835,6.806,6.806,0,0,1-3.475.736H555.34l-.706,3.084c-.109.5-.031.719.345.752l1.08.094-.093.454Z" transform="translate(-368.052 -278.028)" fill="#474841"/>
  <path id="Trazado_22" data-name="Trazado 22" d="M576.9,314.737c-2.457,0-3.991,3.867-3.991,5.59,0,.61.172,1.1.688,1.1.752,0,1.706-1.05,2.583-2.38a13.214,13.214,0,0,0,1.675-3.961,1.4,1.4,0,0,0-.955-.344m2.506-.423-1.66,6.248c-.141.5-.157.861.157.861.439,0,1.128-1.113,1.41-1.661l.375.22c-.533,1.19-1.408,2.255-2.6,2.255-.846,0-1.018-.642-.689-1.754l.533-1.784H576.9c-.907,1.6-2.363,3.538-4.039,3.538-1.065,0-1.5-.923-1.5-1.864,0-2.066,1.785-6.183,5.51-6.183a2.13,2.13,0,0,1,1.142.328l.081-.2Z" transform="translate(-378.241 -281.171)" fill="#474841"/>
  <path id="Trazado_23" data-name="Trazado 23" d="M595.535,311.035c-.972,0-2.146,1.346-2.85,2.6a6.331,6.331,0,0,0-.829,2.74,1.241,1.241,0,0,0,1.283,1.347c2.3,0,3.24-4.259,3.24-5.386,0-.892-.266-1.3-.844-1.3m-3.272,2.41h.031c1.205-2.145,2.756-3.224,3.944-3.224,1.16,0,1.677.814,1.677,1.972a7.711,7.711,0,0,1-1.033,3.476,4.589,4.589,0,0,1-3.93,2.6,2.1,2.1,0,0,1-1.972-1.1l-.486.909h-.564l2.3-10c.14-.611.078-.72-.314-.767l-.892-.109.093-.36,2.8-.375.077.078Z" transform="translate(-387.782 -277.202)" fill="#474841"/>
  <path id="Trazado_24" data-name="Trazado 24" d="M612.768,306.463l.078.078-2.521,10.067c-.125.517-.125.845.156.845.375,0,1.081-.954,1.441-1.659l.376.219c-.5,1.175-1.457,2.255-2.552,2.255-.846,0-1.033-.642-.814-1.534l2.145-8.659c.156-.611.078-.72-.313-.767l-.893-.109.1-.36Z" transform="translate(-397.501 -277.202)" fill="#474841"/>
  <path id="Trazado_25" data-name="Trazado 25" d="M619.36,320.029c0,1.111.5,1.66,1.41,1.66,2.145,0,2.958-4.2,2.958-5.308,0-.971-.344-1.644-1.3-1.644-2.068,0-3.07,3.6-3.07,5.292m5.888-3.1a6.553,6.553,0,0,1-.986,3.3,3.981,3.981,0,0,1-3.54,2,2.592,2.592,0,0,1-2.88-2.834c0-1.347.892-5.213,4.6-5.213a2.543,2.543,0,0,1,2.8,2.739" transform="translate(-402.121 -281.171)" fill="#474841"/>
</svg>
